# Blender v2.79 (sub 0) OBJ File: ''
# www.blender.org
mtllib cube.mtl
o Cube
v 0.500000 -0.500000 -0.500000
v 0.500000 -0.500000 0.500000
v -0.500000 -0.500000 0.500000
v -0.500000 -0.500000 -0.500000
v 0.500000 0.500000 -0.500000
v 0.500000 0.500000 0.500000
v -0.500000 0.500000 0.500000
v -0.500000 0.500000 -0.500000

# side

vt 0.200000 0.800000
vt 0.400000 0.800000
vt 0.200000 1.000000
vt 0.400000 1.000000

# top
vt 0.200000 0.800000
vt 0.400000 0.800000
vt 0.200000 1.000000
vt 0.400000 1.000000


# down
vt 0.200000 0.800000
vt 0.400000 0.800000
vt 0.200000 1.000000
vt 0.400000 1.000000



vn 0.0000 -1.0000 0.0000
vn 0.0000  1.0000 0.0000
vn 1.0000  0.0000 0.0000
vn 0.0000  0.0000 1.0000
vn -1.0000 0.0000 0.0000
vn 0.0000 0.0000 -1.0000
vn 0.0000 0.0000  1.0000
vn 0.0000 0.0000 -1.0000

g Cube_Cube_Material
usemtl Material
s off

#top
f 8/7/2 6/6/2 5/8/2
f 8/7/2 7/5/2 6/6/2

#down
f 1/10/1 3/11/1 4/9/1
f 1/10/1 2/12/1 3/11/1

#right
f 5/4/3 2/1/3 1/2/3
f 5/4/3 6/3/3 2/1/3

#left
f 7/4/5 4/1/5 3/2/5
f 7/4/5 8/3/5 4/1/5

#front
f 6/4/4 3/1/4 2/2/4
f 6/4/7 7/3/7 3/1/7

#back
f 8/1/6 1/4/6 4/3/6
f 8/1/8 5/2/8 1/4/8
